<svg width="97" height="36" viewBox="0 0 97 36" fill="none" xmlns="http://www.w3.org/2000/svg">
<path fill-rule="evenodd" clip-rule="evenodd" d="M0 0.5H4.375V17.125H0V0.5ZM6.125 0.5H10.5V17.125H6.125V0.5ZM16.625 0.5H12.25V17.125H16.625V0.5Z" fill="#655349"/>
<path fill-rule="evenodd" clip-rule="evenodd" d="M18.375 18.875H22.75V35.5H18.375V18.875ZM24.5 18.875H28.875V35.5H24.5V18.875ZM35 18.875H30.625V35.5H35V18.875Z" fill="#655349"/>
<path fill-rule="evenodd" clip-rule="evenodd" d="M16.625 18.875L16.625 23.25L-1.91237e-07 23.25L0 18.875L16.625 18.875ZM16.625 25L16.625 29.375L-4.5897e-07 29.375L-2.67732e-07 25L16.625 25ZM16.625 35.5L16.625 31.125L-5.35465e-07 31.125L-7.26702e-07 35.5L16.625 35.5Z" fill="#E7B764"/>
<path fill-rule="evenodd" clip-rule="evenodd" d="M35 0.5L35 4.875L18.375 4.875L18.375 0.499999L35 0.5ZM35 6.625L35 11L18.375 11L18.375 6.625L35 6.625ZM35 17.125L35 12.75L18.375 12.75L18.375 17.125L35 17.125Z" fill="#E7B764"/>
<path d="M51.6229 7.91293V13.432C51.4061 13.6935 51.0713 13.9772 50.6186 14.2833C50.1658 14.583 49.5824 14.8413 48.8681 15.0581C48.154 15.2749 47.2899 15.3833 46.276 15.3833C45.3769 15.3833 44.5575 15.2367 43.8178 14.9433C43.0781 14.6436 42.4404 14.2068 41.9048 13.6329C41.3755 13.059 40.9674 12.3576 40.6804 11.5285C40.3935 10.6932 40.25 9.73989 40.25 8.66862V7.7982C40.25 6.72686 40.3871 5.77356 40.6613 4.93821C40.9419 4.10286 41.3404 3.39823 41.8569 2.82432C42.3734 2.25041 42.9888 1.81361 43.703 1.5139C44.4172 1.21419 45.2111 1.06434 46.0847 1.06434C47.2963 1.06434 48.2911 1.26202 49.069 1.65738C49.847 2.04636 50.44 2.58838 50.8482 3.28345C51.2626 3.97213 51.5177 4.76285 51.6133 5.65559H48.8299C48.7597 5.18371 48.6259 4.77241 48.4282 4.42169C48.2305 4.07097 47.9467 3.79677 47.5769 3.59909C47.2134 3.40141 46.7415 3.30257 46.1612 3.30257C45.683 3.30257 45.2557 3.40141 44.8795 3.59909C44.5097 3.79039 44.1972 4.07416 43.9421 4.45038C43.6871 4.82662 43.4926 5.29212 43.3587 5.84689C43.2247 6.40167 43.1578 7.04571 43.1578 7.77907V8.66862C43.1578 9.39551 43.2279 10.0396 43.3682 10.6008C43.5085 11.1555 43.7158 11.6242 43.99 12.0068C44.2705 12.383 44.6149 12.6668 45.023 12.8581C45.4311 13.0494 45.9062 13.145 46.4482 13.145C46.9009 13.145 47.2771 13.1068 47.5769 13.0303C47.883 12.9538 48.1284 12.8613 48.3134 12.7529C48.5047 12.6381 48.6513 12.5297 48.7534 12.4277V9.95988H46.1325V7.91293H51.6229ZM53.3255 10.1225V9.92162C53.3255 9.16279 53.4339 8.46456 53.6507 7.82687C53.8675 7.18283 54.1832 6.62485 54.5977 6.15298C55.0121 5.6811 55.5223 5.31444 56.1281 5.05299C56.7338 4.78517 57.4289 4.65125 58.2133 4.65125C58.9976 4.65125 59.6959 4.78517 60.308 5.05299C60.9202 5.31444 61.4335 5.6811 61.848 6.15298C62.2689 6.62485 62.5877 7.18283 62.8045 7.82687C63.0213 8.46456 63.1297 9.16279 63.1297 9.92162V10.1225C63.1297 10.875 63.0213 11.5732 62.8045 12.2172C62.5877 12.8549 62.2689 13.4129 61.848 13.8911C61.4335 14.363 60.9234 14.7297 60.3176 14.9911C59.7118 15.2526 59.0167 15.3833 58.2324 15.3833C57.4481 15.3833 56.7498 15.2526 56.1377 14.9911C55.5318 14.7297 55.0185 14.363 54.5977 13.8911C54.1832 13.4129 53.8675 12.8549 53.6507 12.2172C53.4339 11.5732 53.3255 10.875 53.3255 10.1225ZM56.0803 9.92162V10.1225C56.0803 10.5561 56.1185 10.961 56.195 11.3373C56.2715 11.7135 56.3927 12.0451 56.5585 12.332C56.7307 12.6126 56.9539 12.8326 57.2281 12.992C57.5023 13.1514 57.837 13.2312 58.2324 13.2312C58.615 13.2312 58.9434 13.1514 59.2176 12.992C59.4918 12.8326 59.7118 12.6126 59.8776 12.332C60.0434 12.0451 60.1645 11.7135 60.241 11.3373C60.324 10.961 60.3654 10.5561 60.3654 10.1225V9.92162C60.3654 9.50077 60.324 9.1054 60.241 8.73555C60.1645 8.3593 60.0402 8.02772 59.868 7.7408C59.7022 7.44742 59.4822 7.2179 59.208 7.05211C58.9338 6.88632 58.6023 6.80339 58.2133 6.80339C57.8243 6.80339 57.4927 6.88632 57.2185 7.05211C56.9507 7.2179 56.7307 7.44742 56.5585 7.7408C56.3927 8.02772 56.2715 8.3593 56.195 8.73555C56.1185 9.1054 56.0803 9.50077 56.0803 9.92162ZM67.7306 0.5V15.192H64.9662V0.5H67.7306ZM76.1191 12.9347V0.5H78.893V15.192H76.3965L76.1191 12.9347ZM69.5766 10.1416V9.94075C69.5766 9.15006 69.6659 8.43263 69.8444 7.7886C70.023 7.13817 70.2844 6.58021 70.6287 6.11471C70.9731 5.64921 71.3972 5.28892 71.9009 5.03386C72.4047 4.77879 72.9786 4.65125 73.6226 4.65125C74.2284 4.65125 74.7577 4.77879 75.2104 5.03386C75.6696 5.28892 76.0586 5.6524 76.3774 6.12428C76.7026 6.58978 76.9641 7.14137 77.1617 7.77907C77.3594 8.41037 77.5029 9.1022 77.5922 9.85469V10.2947C77.5029 11.0152 77.3594 11.6848 77.1617 12.3034C76.9641 12.9219 76.7026 13.4639 76.3774 13.9294C76.0586 14.3885 75.6696 14.7456 75.2104 15.0007C74.7513 15.2558 74.2157 15.3833 73.6035 15.3833C72.9595 15.3833 72.3856 15.2526 71.8818 14.9911C71.3844 14.7297 70.9635 14.363 70.6192 13.8911C70.2812 13.4193 70.023 12.8645 69.8444 12.2268C69.6659 11.5891 69.5766 10.8941 69.5766 10.1416ZM72.3314 9.94075V10.1416C72.3314 10.5688 72.3632 10.9674 72.427 11.3373C72.4972 11.7071 72.6088 12.0355 72.7618 12.3225C72.9212 12.6031 73.1253 12.8231 73.3739 12.9824C73.629 13.1355 73.9383 13.212 74.3017 13.212C74.7736 13.212 75.1626 13.1068 75.4687 12.8964C75.7748 12.6795 76.0075 12.383 76.167 12.0068C76.3328 11.6306 76.4284 11.1969 76.4539 10.706V9.45291C76.4347 9.0512 76.3774 8.69089 76.2818 8.3721C76.1924 8.04685 76.0586 7.76947 75.88 7.53988C75.7079 7.31036 75.491 7.13177 75.2295 7.00424C74.9745 6.87672 74.6716 6.81299 74.3209 6.81299C73.9638 6.81299 73.6577 6.89585 73.4027 7.06164C73.1476 7.2211 72.9403 7.44109 72.7809 7.72167C72.6279 8.00226 72.5131 8.33384 72.4366 8.71642C72.3664 9.09266 72.3314 9.50077 72.3314 9.94075Z" fill="#655349"/>
<path d="M45.6734 30.3444H42.1248V28.1061H45.6734C46.2218 28.1061 46.6682 28.0169 47.0125 27.8384C47.3569 27.6534 47.6087 27.3983 47.7682 27.0731C47.9276 26.7479 48.0073 26.3812 48.0073 25.9731C48.0073 25.5587 47.9276 25.1729 47.7682 24.8158C47.6087 24.4587 47.3569 24.1717 47.0125 23.9549C46.6682 23.7381 46.2218 23.6297 45.6734 23.6297H43.1195V35.3087H40.25V21.3819H45.6734C46.7638 21.3819 47.698 21.5796 48.476 21.9749C49.2603 22.3639 49.8597 22.9027 50.2743 23.5914C50.6887 24.2801 50.896 25.0676 50.896 25.954C50.896 26.8531 50.6887 27.6311 50.2743 28.2879C49.8597 28.9447 49.2603 29.4517 48.476 29.8087C47.698 30.1658 46.7638 30.3444 45.6734 30.3444ZM58.175 32.9748V28.3644C58.175 28.0328 58.1208 27.7491 58.0124 27.5131C57.904 27.2708 57.735 27.0827 57.5055 26.9488C57.2823 26.8149 56.9921 26.7479 56.635 26.7479C56.3289 26.7479 56.0643 26.8021 55.8411 26.9105C55.618 27.0125 55.4458 27.1624 55.3246 27.36C55.2034 27.5514 55.1429 27.7778 55.1429 28.0392H52.3881C52.3881 27.5992 52.4901 27.1815 52.6942 26.7862C52.8982 26.3908 53.1948 26.0433 53.5837 25.7436C53.9727 25.4375 54.435 25.1984 54.9707 25.0262C55.5127 24.854 56.1185 24.7679 56.788 24.7679C57.5915 24.7679 58.3057 24.9018 58.9306 25.1697C59.5555 25.4375 60.0466 25.8392 60.4037 26.3749C60.7671 26.9105 60.9489 27.5801 60.9489 28.3835V32.8122C60.9489 33.3797 60.9839 33.8452 61.0541 34.2087C61.1243 34.5658 61.2263 34.8782 61.3602 35.1461V35.3087H58.5767C58.4428 35.0281 58.3408 34.6774 58.2707 34.2565C58.2069 33.8293 58.175 33.402 58.175 32.9748ZM58.5385 29.0053L58.5576 30.5644H57.0176C56.6542 30.5644 56.3385 30.6059 56.0707 30.6887C55.8029 30.7717 55.5828 30.8896 55.4107 31.0426C55.2385 31.1893 55.111 31.3615 55.0281 31.5591C54.9515 31.7568 54.9133 31.9737 54.9133 32.2096C54.9133 32.4455 54.9675 32.6592 55.0759 32.8505C55.1843 33.0354 55.3405 33.1821 55.5446 33.2905C55.7486 33.3925 55.9878 33.4435 56.262 33.4435C56.6764 33.4435 57.0367 33.3606 57.3429 33.1948C57.6489 33.029 57.8848 32.8249 58.0506 32.5826C58.2228 32.3403 58.3121 32.1107 58.3185 31.8939L59.0454 33.0609C58.9434 33.3223 58.8031 33.5933 58.6245 33.8739C58.4524 34.1545 58.2324 34.4191 57.9646 34.6678C57.6967 34.9101 57.3747 35.111 56.9985 35.2704C56.6222 35.4235 56.1759 35.5 55.6594 35.5C55.0026 35.5 54.4064 35.3693 53.8707 35.1078C53.3414 34.84 52.9206 34.4733 52.6081 34.0078C52.302 33.536 52.149 33.0003 52.149 32.4009C52.149 31.8589 52.251 31.3774 52.4551 30.9566C52.6591 30.5357 52.9588 30.1818 53.3542 29.8948C53.7559 29.6015 54.2565 29.3815 54.8559 29.2348C55.4553 29.0818 56.1504 29.0053 56.9411 29.0053H58.5385ZM65.8271 27.2166V35.3087H63.0723V24.9592H65.6645L65.8271 27.2166ZM68.9453 24.8923L68.8975 27.4462C68.7636 27.427 68.601 27.4111 68.4097 27.3983C68.2247 27.3792 68.0557 27.3696 67.9027 27.3696C67.5137 27.3696 67.1757 27.4206 66.8888 27.5227C66.6082 27.6184 66.3723 27.7618 66.181 27.9531C65.9961 28.1444 65.8558 28.3772 65.7601 28.6514C65.6709 28.9256 65.6198 29.238 65.6071 29.5887L65.0523 29.4166C65.0523 28.747 65.1192 28.1317 65.2532 27.5705C65.3871 27.003 65.5815 26.5088 65.8367 26.0879C66.0981 25.6671 66.4169 25.3418 66.7931 25.1123C67.1694 24.8827 67.5998 24.7679 68.0844 24.7679C68.2375 24.7679 68.3937 24.7807 68.5531 24.8062C68.7126 24.8253 68.8433 24.854 68.9453 24.8923ZM73.0009 20.6071V35.3087H70.2462V20.6071H73.0009ZM79.5243 24.9592L75.0287 30.0862L72.6183 32.5252L71.6139 30.5357L73.527 28.1061L76.2148 24.9592H79.5243ZM76.6643 35.3087L73.6035 30.5261L75.5069 28.8618L79.84 35.3087H76.6643ZM85.2825 35.5C84.479 35.5 83.7585 35.3725 83.1208 35.1174C82.4831 34.8559 81.9411 34.4957 81.4947 34.0365C81.0547 33.5774 80.7168 33.0449 80.4808 32.4392C80.2449 31.827 80.1269 31.1766 80.1269 30.4879V30.1052C80.1269 29.3209 80.2385 28.6035 80.4617 27.9531C80.6849 27.3027 81.0037 26.7383 81.4182 26.2601C81.8391 25.7818 82.3492 25.4152 82.9486 25.1601C83.548 24.8987 84.2239 24.7679 84.9764 24.7679C85.7097 24.7679 86.3601 24.8891 86.9277 25.1314C87.4952 25.3737 87.9703 25.7181 88.3529 26.1644C88.7419 26.6108 89.0352 27.1465 89.2328 27.7714C89.4306 28.3899 89.5294 29.0786 89.5294 29.8374V30.9852H81.3034V29.1487H86.8224V28.9383C86.8224 28.5557 86.7523 28.2145 86.6121 27.9149C86.4781 27.6088 86.2741 27.3664 85.9999 27.1879C85.7257 27.0093 85.3749 26.9201 84.9477 26.9201C84.5842 26.9201 84.2718 26.9998 84.0103 27.1592C83.7489 27.3186 83.5353 27.5418 83.3695 27.8288C83.21 28.1157 83.0889 28.4537 83.006 28.8427C82.9295 29.2253 82.8912 29.6461 82.8912 30.1052V30.4879C82.8912 30.9024 82.9486 31.285 83.0634 31.6357C83.1845 31.9864 83.3535 32.2893 83.5704 32.5444C83.7935 32.7994 84.0613 32.9971 84.3738 33.1374C84.6926 33.2777 85.0529 33.3479 85.4547 33.3479C85.952 33.3479 86.4143 33.2522 86.8416 33.0609C87.2752 32.8632 87.6483 32.5667 87.9607 32.1713L89.2998 33.6252C89.0831 33.9377 88.7865 34.2374 88.4103 34.5243C88.0405 34.8113 87.5941 35.0472 87.0712 35.2321C86.5483 35.4107 85.952 35.5 85.2825 35.5ZM96.1676 24.9592V26.9105H90.1415V24.9592H96.1676ZM91.6337 22.4054H94.3885V32.1904C94.3885 32.4902 94.4267 32.7198 94.5032 32.8791C94.5862 33.0385 94.7073 33.1501 94.8667 33.2139C95.0261 33.2713 95.227 33.3 95.4693 33.3C95.6415 33.3 95.7946 33.2937 95.9285 33.2809C96.0687 33.2617 96.1867 33.2426 96.2823 33.2235L96.2919 35.2513C96.056 35.3278 95.8009 35.3884 95.5267 35.433C95.2525 35.4777 94.9496 35.5 94.618 35.5C94.0123 35.5 93.4829 35.4011 93.0302 35.2035C92.5839 34.9994 92.2395 34.6742 91.9972 34.2278C91.7548 33.7814 91.6337 33.1948 91.6337 32.4678V22.4054Z" fill="#E7B764"/>
</svg>
