<svg width="50" height="49" viewBox="0 0 50 49" fill="none" xmlns="http://www.w3.org/2000/svg">
<path fill-rule="evenodd" clip-rule="evenodd" d="M0.671204 0.128906H6.7534V23.2413H0.671204V0.128906ZM9.18631 0.128906H15.2685V23.2413H9.18631V0.128906ZM23.7836 0.128906H17.7014V23.2413H23.7836V0.128906Z" fill="white"/>
<path fill-rule="evenodd" clip-rule="evenodd" d="M26.2165 25.6741H32.2987V48.7864H26.2165V25.6741ZM34.7316 25.6741H40.8138V48.7865H34.7316V25.6741ZM49.3289 25.6741H43.2467V48.7865H49.3289V25.6741Z" fill="white"/>
<path fill-rule="evenodd" clip-rule="evenodd" d="M23.7835 25.6741L23.7835 31.7563L0.671186 31.7563L0.671186 25.6741L23.7835 25.6741ZM23.7835 34.1892L23.7835 40.2714L0.671155 40.2714L0.671156 34.1892L23.7835 34.1892ZM23.7835 48.7864L23.7835 42.7042L0.671155 42.7042L0.671155 48.7864L23.7835 48.7864Z" fill="white"/>
<path fill-rule="evenodd" clip-rule="evenodd" d="M49.3288 0.128906L49.3288 6.2111L26.2165 6.2111L26.2165 0.128905L49.3288 0.128906ZM49.3288 8.64425L49.3288 14.7264L26.2165 14.7264L26.2165 8.64425L49.3288 8.64425ZM49.3288 23.2412L49.3288 17.159L26.2165 17.159L26.2165 23.2412L49.3288 23.2412Z" fill="white"/>
</svg>
